<svg width="181" height="80" viewBox="0 0 181 80" fill="none" xmlns="http://www.w3.org/2000/svg">
<path d="M50.0792 28.9684C48.7836 29.1728 47.9881 30.4111 48.4628 31.513C49.0144 32.7853 50.7207 33.2056 51.824 32.3536C52.4269 31.8879 52.645 31.4789 52.645 30.8314C52.645 29.6272 51.4519 28.7525 50.0792 28.9684Z" fill="#252A42"/>
<path d="M98.7008 32.3876V35.8069L98.0978 35.3411C96.7892 34.3188 94.9419 33.8417 93.2741 34.0802C90.811 34.4551 88.9252 36.1137 88.1554 38.5901C87.7962 39.7716 87.7705 42.1799 88.1041 43.2818C88.9252 45.974 90.888 47.5872 93.6975 47.8825C95.1985 48.0416 96.9817 47.485 98.0978 46.508L98.7008 45.974V46.7806V47.5985H100.625H102.549V38.2834V28.9683H100.625H98.7008V32.3876ZM96.8534 37.2723C97.9824 37.7495 98.7008 39.1241 98.7008 40.7826C98.7008 43.4522 97.4692 44.9858 95.3011 44.9858C93.3768 44.9858 92.0938 43.6566 91.9399 41.4983C91.7346 38.6355 93.2228 36.8066 95.5961 36.9656C95.9682 36.9997 96.5327 37.136 96.8534 37.2723Z" fill="#252A42"/>
<path d="M27.3849 30.2406C27.603 30.7632 28.0648 31.8764 28.3984 32.7171C29.4503 35.3185 32.5934 42.9864 33.5812 45.3266L34.5049 47.5418H36.9296H39.3414L40.0855 45.781C40.6499 44.4178 46.6795 30.1384 46.9746 29.4454C47.0132 29.3318 46.5256 29.3091 44.6141 29.3318L42.2022 29.3659L41.7661 30.5587C39.9315 35.6252 37.2118 42.941 37.0835 43.2023C36.9296 43.509 36.8911 43.4408 36.3138 41.7823C35.9674 40.8281 34.8 37.6246 33.7095 34.6709L31.721 29.3091H29.3605H27L27.3849 30.2406Z" fill="#252A42"/>
<path d="M110.747 34.0919C107.117 34.5577 104.73 37.3522 104.73 41.0896C104.743 44.3386 106.629 46.7809 109.824 47.667C111.543 48.1328 114.352 47.9397 115.943 47.2467C116.777 46.8831 118.072 46.0652 118.072 45.9063C118.072 45.8494 117.611 45.3496 117.033 44.7816L115.994 43.7478L115.237 44.2136C114.185 44.8384 113.364 45.0997 112.376 45.0997C111.401 45.0997 110.657 44.8838 109.99 44.418C109.464 44.0432 108.9 43.1572 108.759 42.4641L108.682 42.0324L113.659 42.0097L118.65 41.9757L118.611 40.7147C118.534 37.727 117.29 35.6709 114.942 34.6485C113.518 34.0237 112.376 33.876 110.747 34.0919ZM113.044 36.9886C113.3 37.0795 113.672 37.2954 113.865 37.4544C114.288 37.8066 114.737 38.8062 114.737 39.3629V39.7605H111.709H108.682L108.772 39.3856C109.028 38.3178 109.772 37.3976 110.696 37.0228C111.324 36.7615 112.402 36.7501 113.044 36.9886Z" fill="#252A42"/>
<path d="M126.347 34.0351C124.847 34.2395 123.551 34.7848 122.537 35.6481C121.01 36.9318 120.266 38.5222 120.151 40.6806C120.112 41.6803 120.151 42.2142 120.305 42.8731C121.087 45.9857 123.935 47.9397 127.694 47.9397C129.67 47.9397 131.748 47.3149 132.993 46.3379L133.595 45.8721L132.492 44.8042L131.377 43.7365L130.902 44.0772C128.823 45.5313 126.026 45.4064 124.782 43.8046C124.552 43.4865 124.102 42.396 124.102 42.1233C124.102 42.0779 126.36 42.0324 129.118 42.0324H134.147L134.07 40.6352C134.031 39.8741 133.904 38.9425 133.801 38.579C133.12 36.4207 131.491 34.8075 129.4 34.2736C128.694 34.0805 126.976 33.9555 126.347 34.0351ZM128.541 37.0227C129.234 37.3067 129.811 37.9428 130.055 38.7267C130.414 39.8513 130.671 39.7604 127.233 39.7604H124.192L124.282 39.2833C124.461 38.2723 125.347 37.2726 126.309 36.9546C126.951 36.7614 127.951 36.7842 128.541 37.0227Z" fill="#252A42"/>
<path d="M48.5398 40.9532V47.5987H50.5283H52.5168V40.9532V34.3076H50.5283H48.5398V40.9532Z" fill="#252A42"/>
<path d="M54.3127 34.3985C54.3127 34.4894 54.8387 35.6935 56.7502 40.0444C57.3403 41.3508 58.3153 43.5773 58.9312 44.986L60.0472 47.542L62.2282 47.5761L64.4091 47.5987L65.0248 46.2128C65.3713 45.4404 66.064 43.8727 66.5771 42.714C68.5656 38.2041 70.0667 34.8075 70.1436 34.5576L70.2334 34.3076H68.1166H66.0127L65.1147 36.7159C63.1647 41.9415 62.3565 43.975 62.2666 43.8841C62.1768 43.8046 60.9838 40.7487 59.0979 35.8071L58.5206 34.3076H56.4167C55.2621 34.3076 54.3127 34.3531 54.3127 34.3985Z" fill="#252A42"/>
<path d="M71.7088 34.5576C71.6575 34.7052 71.6446 36.8068 71.6703 39.2492C71.7345 44.3385 71.8114 44.8497 72.6709 45.9971C73.8255 47.5306 76.1475 48.269 78.3028 47.7805C79.4446 47.5192 80.1117 47.2012 81.0097 46.4855L81.7667 45.872V46.7355V47.5988H83.6909H85.6153V40.9533V34.3076H83.6397H81.6512L81.6127 38.4995L81.5742 42.6799L81.1252 43.4638C80.5094 44.5316 79.8936 44.9065 78.6877 44.9632C77.5587 45.0201 77.0327 44.861 76.4042 44.259C75.6472 43.5433 75.6088 43.2138 75.6088 38.454V34.3076H73.6973C71.8243 34.3076 71.7857 34.3076 71.7088 34.5576Z" fill="#252A42"/>
<path d="M147.117 11.9959C147.496 11.8514 147.681 11.9116 147.712 12.1885C147.732 12.321 147.507 12.8388 147.209 13.3927C146.912 13.9105 146.277 15.1026 145.785 16.0298C145.294 16.9569 143.726 19.9071 142.301 22.5923C140.877 25.2776 139.32 28.2036 138.848 29.0947C138.367 29.9856 137.916 30.7683 137.834 30.8166C137.649 30.937 137.598 30.9009 135.426 29.2632C134.432 28.5047 133.551 27.8665 133.459 27.8183C133.284 27.746 133.192 27.8183 130.477 30.2024C129.586 30.9971 128.776 31.6232 128.684 31.5993C128.571 31.5752 128.469 31.2741 128.335 30.5396C128.233 29.9736 127.905 28.2156 127.618 26.6262L127.085 23.7362L126.522 23.3028C126.214 23.0499 125.272 22.3394 124.421 21.7133C123.581 21.0751 122.802 20.473 122.7 20.3646C122.321 19.9673 122.608 19.8107 125.261 18.9678C129.411 17.6553 133.1 16.4873 135.334 15.7769C136.491 15.4036 137.823 14.9821 138.305 14.8256C140.324 14.1994 146.882 12.0802 147.117 11.9959ZM145.037 13.9586C145.385 13.6937 145.099 13.8021 144.545 14.1393C144.238 14.3319 142.978 15.1026 141.738 15.8491C140.498 16.5957 139.299 17.3302 139.074 17.4747C138.848 17.6192 136.379 19.1364 133.592 20.8463C130.807 22.5551 128.502 23.9753 128.479 23.9891C128.448 24.0252 128.745 27.168 129.002 29.5161C129.063 30.0821 129.145 30.5155 129.196 30.4554C129.268 30.3588 130.006 28.2035 130.579 26.3974L130.877 25.4582L131.799 24.7236C132.741 23.9771 137.69 19.9673 140.58 17.6072C140.939 17.3182 141.758 16.6559 142.404 16.1381C143.05 15.6083 143.869 14.934 144.217 14.645C144.566 14.344 144.935 14.0429 145.037 13.9586Z" fill="#0E81CD"/>
<path d="M63.0576 62.1606L60.4233 70H58.5762L62.0293 60.7578H63.21L63.0576 62.1606ZM65.2603 70L62.6133 62.1606L62.4546 60.7578H63.6416L67.1138 70H65.2603ZM65.1396 66.5659V67.9434H60.1821V66.5659H65.1396ZM72.0586 68.54V60.25H73.7471V70H72.2236L72.0586 68.54ZM67.647 66.6484V66.5151C67.647 65.9904 67.7062 65.5143 67.8247 65.0869C67.9474 64.6553 68.1252 64.285 68.3579 63.9761C68.5907 63.6672 68.8721 63.4281 69.2021 63.2588C69.5365 63.0895 69.9152 63.0049 70.3384 63.0049C70.7489 63.0049 71.1064 63.0874 71.4111 63.2524C71.7201 63.4175 71.9824 63.6523 72.1982 63.957C72.4183 64.2617 72.5939 64.6235 72.7251 65.0425C72.8563 65.4572 72.9515 65.9142 73.0107 66.4136V66.7754C72.9515 67.262 72.8563 67.7085 72.7251 68.1147C72.5939 68.521 72.4183 68.8765 72.1982 69.1812C71.9824 69.4816 71.7201 69.7144 71.4111 69.8794C71.1022 70.0444 70.7404 70.127 70.3257 70.127C69.9067 70.127 69.5301 70.0402 69.1958 69.8667C68.8657 69.6932 68.5843 69.4499 68.3516 69.1367C68.123 68.8236 67.9474 68.4554 67.8247 68.0322C67.7062 67.609 67.647 67.1478 67.647 66.6484ZM69.3291 66.5151V66.6484C69.3291 66.9447 69.3545 67.2218 69.4053 67.48C69.4561 67.7381 69.5386 67.9666 69.6528 68.1655C69.7671 68.3602 69.9131 68.5125 70.0908 68.6226C70.2728 68.7326 70.4928 68.7876 70.751 68.7876C71.0811 68.7876 71.3519 68.7157 71.5635 68.5718C71.7793 68.4237 71.9465 68.2227 72.0649 67.9688C72.1834 67.7106 72.2596 67.4207 72.2935 67.0991V66.1025C72.2765 65.8486 72.2321 65.6138 72.1602 65.3979C72.0924 65.1821 71.9951 64.9959 71.8682 64.8394C71.7454 64.6828 71.5931 64.5601 71.4111 64.4712C71.2292 64.3823 71.0133 64.3379 70.7637 64.3379C70.5055 64.3379 70.2855 64.395 70.1035 64.5093C69.9215 64.6193 69.7734 64.7738 69.6592 64.9727C69.5449 65.1715 69.4603 65.4022 69.4053 65.6646C69.3545 65.9269 69.3291 66.2104 69.3291 66.5151ZM76.9336 64.541V70H75.2578V63.1318H76.8384L76.9336 64.541ZM76.686 66.3184H76.1719C76.1719 65.8402 76.229 65.4001 76.3433 64.998C76.4618 64.596 76.6353 64.2469 76.8638 63.9507C77.0923 63.6502 77.3737 63.4175 77.708 63.2524C78.0465 63.0874 78.438 63.0049 78.8823 63.0049C79.1912 63.0049 79.4748 63.0514 79.7329 63.1445C79.991 63.2334 80.2132 63.3752 80.3994 63.5698C80.5898 63.7603 80.7358 64.0099 80.8374 64.3188C80.939 64.6235 80.9897 64.9896 80.9897 65.417V70H79.314V65.5884C79.314 65.2668 79.2674 65.015 79.1743 64.833C79.0854 64.651 78.9564 64.5241 78.7871 64.4521C78.6178 64.376 78.4147 64.3379 78.1777 64.3379C77.9154 64.3379 77.689 64.3908 77.4985 64.4966C77.3123 64.5981 77.1579 64.7399 77.0352 64.9219C76.9167 65.1038 76.8278 65.3133 76.7686 65.5503C76.7135 65.7873 76.686 66.0433 76.686 66.3184ZM80.8628 66.0073L80.1709 66.1343C80.1751 65.7026 80.2344 65.2985 80.3486 64.9219C80.4629 64.541 80.63 64.2088 80.8501 63.9253C81.0744 63.6375 81.3516 63.4132 81.6816 63.2524C82.016 63.0874 82.401 63.0049 82.8369 63.0049C83.1755 63.0049 83.4801 63.0535 83.751 63.1509C84.026 63.244 84.2609 63.3942 84.4556 63.6016C84.6502 63.8047 84.7983 64.0692 84.8999 64.395C85.0057 64.7209 85.0586 65.1187 85.0586 65.5884V70H83.3701V65.582C83.3701 65.2477 83.3236 64.9917 83.2305 64.814C83.1416 64.6362 83.0125 64.5135 82.8433 64.4458C82.674 64.3739 82.4751 64.3379 82.2466 64.3379C82.0138 64.3379 81.8107 64.3823 81.6372 64.4712C81.4679 64.5558 81.3241 64.6743 81.2056 64.8267C81.0913 64.979 81.0046 65.1567 80.9453 65.3599C80.8903 65.5588 80.8628 65.7746 80.8628 66.0073ZM88.3403 63.1318V70H86.6582V63.1318H88.3403ZM86.5439 61.3354C86.5439 61.0858 86.6286 60.8784 86.7979 60.7134C86.9714 60.5483 87.2041 60.4658 87.4961 60.4658C87.7881 60.4658 88.0187 60.5483 88.188 60.7134C88.3615 60.8784 88.4482 61.0858 88.4482 61.3354C88.4482 61.5809 88.3615 61.7861 88.188 61.9512C88.0187 62.1162 87.7881 62.1987 87.4961 62.1987C87.2041 62.1987 86.9714 62.1162 86.7979 61.9512C86.6286 61.7861 86.5439 61.5809 86.5439 61.3354ZM91.584 64.5981V70H89.9082V63.1318H91.4824L91.584 64.5981ZM91.3174 66.3184H90.8223C90.8265 65.819 90.8942 65.3662 91.0254 64.96C91.1566 64.5537 91.3407 64.2046 91.5776 63.9126C91.8188 63.6206 92.1045 63.3963 92.4346 63.2397C92.7646 63.0832 93.1328 63.0049 93.5391 63.0049C93.8691 63.0049 94.1675 63.0514 94.4341 63.1445C94.7007 63.2376 94.9292 63.3857 95.1196 63.5889C95.3143 63.792 95.4624 64.0586 95.564 64.3887C95.6698 64.7145 95.7227 65.1165 95.7227 65.5947V70H94.0342V65.582C94.0342 65.2689 93.9876 65.0213 93.8945 64.8394C93.8057 64.6574 93.6745 64.5283 93.501 64.4521C93.3317 64.376 93.1222 64.3379 92.8726 64.3379C92.6144 64.3379 92.388 64.3908 92.1934 64.4966C92.0029 64.5981 91.8421 64.7399 91.7109 64.9219C91.584 65.1038 91.4867 65.3133 91.4189 65.5503C91.3512 65.7873 91.3174 66.0433 91.3174 66.3184ZM105.403 67.6006C105.403 67.4229 105.375 67.2642 105.32 67.1245C105.27 66.9806 105.174 66.8516 105.035 66.7373C104.899 66.6188 104.707 66.5046 104.457 66.3945C104.212 66.2803 103.894 66.1618 103.505 66.0391C103.073 65.9036 102.671 65.7513 102.299 65.582C101.926 65.4128 101.598 65.216 101.315 64.9917C101.036 64.7674 100.818 64.5093 100.661 64.2173C100.505 63.9211 100.426 63.5783 100.426 63.189C100.426 62.8081 100.507 62.4611 100.667 62.1479C100.833 61.8348 101.065 61.5661 101.366 61.3418C101.666 61.1133 102.02 60.9377 102.426 60.8149C102.836 60.6922 103.289 60.6309 103.784 60.6309C104.47 60.6309 105.062 60.7557 105.562 61.0054C106.065 61.255 106.454 61.5936 106.729 62.021C107.005 62.4484 107.142 62.9287 107.142 63.4619H105.403C105.403 63.1742 105.341 62.9202 105.219 62.7002C105.1 62.4801 104.918 62.3066 104.673 62.1797C104.432 62.0527 104.127 61.9893 103.759 61.9893C103.403 61.9893 103.107 62.0422 102.87 62.1479C102.637 62.2537 102.462 62.3976 102.343 62.5796C102.229 62.7616 102.172 62.9647 102.172 63.189C102.172 63.3582 102.212 63.5106 102.292 63.646C102.373 63.7772 102.493 63.902 102.654 64.0205C102.815 64.1348 103.014 64.2427 103.251 64.3442C103.492 64.4416 103.771 64.5389 104.089 64.6362C104.597 64.7886 105.041 64.9578 105.422 65.144C105.807 65.3302 106.126 65.5418 106.38 65.7788C106.639 66.0158 106.831 66.2824 106.958 66.5786C107.089 66.8748 107.155 67.2113 107.155 67.5879C107.155 67.9857 107.076 68.3411 106.92 68.6543C106.763 68.9674 106.539 69.234 106.247 69.4541C105.955 69.6742 105.604 69.8413 105.193 69.9556C104.787 70.0698 104.332 70.127 103.829 70.127C103.38 70.127 102.936 70.0677 102.496 69.9492C102.06 69.8265 101.664 69.6445 101.309 69.4033C100.953 69.1579 100.67 68.849 100.458 68.4766C100.246 68.0999 100.141 67.6598 100.141 67.1562H101.893C101.893 67.4482 101.939 67.6979 102.032 67.9053C102.13 68.1084 102.265 68.2756 102.438 68.4067C102.616 68.5337 102.824 68.6268 103.061 68.686C103.298 68.7453 103.554 68.7749 103.829 68.7749C104.184 68.7749 104.476 68.7262 104.705 68.6289C104.937 68.5273 105.111 68.3877 105.225 68.21C105.344 68.0322 105.403 67.8291 105.403 67.6006ZM110.151 63.1318V70H108.469V63.1318H110.151ZM108.354 61.3354C108.354 61.0858 108.439 60.8784 108.608 60.7134C108.782 60.5483 109.015 60.4658 109.307 60.4658C109.599 60.4658 109.829 60.5483 109.999 60.7134C110.172 60.8784 110.259 61.0858 110.259 61.3354C110.259 61.5809 110.172 61.7861 109.999 61.9512C109.829 62.1162 109.599 62.1987 109.307 62.1987C109.015 62.1987 108.782 62.1162 108.608 61.9512C108.439 61.7861 108.354 61.5809 108.354 61.3354ZM115 63.1318V64.3379H111.065V63.1318H115ZM112.119 61.4434H113.801V68.0195C113.801 68.2227 113.828 68.3792 113.883 68.4893C113.938 68.5993 114.021 68.6733 114.131 68.7114C114.241 68.7495 114.372 68.7686 114.524 68.7686C114.634 68.7686 114.736 68.7622 114.829 68.7495C114.922 68.7368 115 68.7241 115.064 68.7114L115.07 69.9683C114.931 70.0148 114.772 70.0529 114.594 70.0825C114.421 70.1121 114.224 70.127 114.004 70.127C113.627 70.127 113.297 70.0635 113.014 69.9365C112.73 69.8053 112.51 69.5959 112.354 69.3081C112.197 69.0161 112.119 68.631 112.119 68.1528V61.4434ZM119.203 70.127C118.682 70.127 118.215 70.0423 117.8 69.873C117.385 69.7038 117.032 69.4689 116.74 69.1685C116.452 68.8638 116.23 68.5104 116.073 68.1084C115.921 67.7021 115.845 67.2663 115.845 66.8008V66.5469C115.845 66.0179 115.921 65.5376 116.073 65.106C116.226 64.6701 116.441 64.2956 116.721 63.9824C117 63.6693 117.334 63.4281 117.724 63.2588C118.113 63.0895 118.542 63.0049 119.012 63.0049C119.499 63.0049 119.928 63.0874 120.301 63.2524C120.673 63.4132 120.984 63.6418 121.234 63.938C121.484 64.2342 121.672 64.5897 121.799 65.0044C121.926 65.4149 121.989 65.8698 121.989 66.3691V67.0737H116.606V65.9185H120.339V65.7915C120.33 65.5249 120.28 65.2816 120.187 65.0615C120.093 64.8372 119.95 64.6595 119.755 64.5283C119.56 64.3929 119.308 64.3252 119 64.3252C118.75 64.3252 118.532 64.3802 118.346 64.4902C118.164 64.596 118.011 64.7484 117.889 64.9473C117.77 65.1419 117.681 65.3747 117.622 65.6455C117.563 65.9163 117.533 66.2168 117.533 66.5469V66.8008C117.533 67.0885 117.571 67.3551 117.647 67.6006C117.728 67.846 117.844 68.0597 117.997 68.2417C118.153 68.4194 118.339 68.5591 118.555 68.6606C118.775 68.758 119.025 68.8066 119.304 68.8066C119.655 68.8066 119.973 68.7389 120.256 68.6035C120.544 68.4639 120.794 68.2586 121.005 67.9878L121.85 68.8638C121.706 69.0754 121.511 69.2785 121.266 69.4731C121.024 69.6678 120.732 69.8265 120.39 69.9492C120.047 70.0677 119.651 70.127 119.203 70.127Z" fill="#252A42" fill-opacity="0.64"/>
</svg>
